<?xml version="1.0" standalone="no"?>
<!DOCTYPE svg PUBLIC "-//W3C//DTD SVG 20010904//EN"
 "http://www.w3.org/TR/2001/REC-SVG-20010904/DTD/svg10.dtd">
<svg version="1.0" xmlns="http://www.w3.org/2000/svg"
 width="50.000000pt" height="50.000000pt" viewBox="0 0 50.000000 50.000000"
 preserveAspectRatio="xMidYMid meet">

<g transform="translate(0.000000,50.000000) scale(0.100000,-0.100000)"
fill="#000000" stroke="none">
<path d="M153 436 c-110 -52 -146 -180 -78 -280 15 -22 25 -51 25 -71 0 -44
12 -50 40 -20 21 22 28 24 85 18 84 -8 160 25 202 88 40 60 40 138 0 198 -56
84 -174 113 -274 67z m183 -15 c85 -39 126 -137 88 -216 -35 -75 -140 -121
-226 -98 -32 9 -40 7 -57 -11 l-21 -20 0 27 c0 16 -12 45 -27 64 -24 31 -28
46 -28 98 0 52 4 67 29 99 54 71 158 95 242 57z"/>
</g>
</svg>
